{
	"asset":{
		"generator":"Khronos glTF Blender I/O v3.6.27",
		"version":"2.0"
	},
	"extensionsUsed":[
		"KHR_materials_specular",
		"KHR_materials_ior",
		"KHR_materials_transmission"
	],
	"scene":0,
	"scenes":[
		{
			"name":"Scene",
			"nodes":[
				0,
				1,
				2
			]
		}
	],
	"nodes":[
		{
			"mesh":0,
			"name":"Plane"
		},
		{
			"mesh":1,
			"name":"GlassSphere",
			"translation":[
				0,
				2,
				0
			]
		},
		{
			"mesh":2,
			"name":"MetalSphere",
			"translation":[
				0,
				2,
				0
			]
		}
	],
	"animations":[
		{
			"channels":[
				{
					"sampler":0,
					"target":{
						"node":1,
						"path":"translation"
					}
				}
			],
			"name":"GlassSphereAction.001",
			"samplers":[
				{
					"input":11,
					"interpolation":"LINEAR",
					"output":12
				}
			]
		},
		{
			"channels":[
				{
					"sampler":0,
					"target":{
						"node":2,
						"path":"translation"
					}
				}
			],
			"name":"MetalSphereAction.001",
			"samplers":[
				{
					"input":11,
					"interpolation":"LINEAR",
					"output":13
				}
			]
		}
	],
	"materials":[
		{
			"doubleSided":true,
			"extensions":{
				"KHR_materials_specular":{
					"specularColorFactor":[
						0,
						0,
						0
					]
				},
				"KHR_materials_ior":{
					"ior":1.4500000476837158
				}
			},
			"name":"Material",
			"pbrMetallicRoughness":{
				"baseColorTexture":{
					"index":0
				},
				"roughnessFactor":0.20000000298023224
			}
		},
		{
			"doubleSided":true,
			"extensions":{
				"KHR_materials_transmission":{
					"transmissionFactor":1
				},
				"KHR_materials_specular":{
					"specularColorFactor":[
						1,
						1,
						1
					]
				},
				"KHR_materials_ior":{
					"ior":2.200000047683716
				}
			},
			"name":"Glass",
			"pbrMetallicRoughness":{
				"baseColorFactor":[
					0.800000011920929,
					0.800000011920929,
					0.800000011920929,
					1
				],
				"metallicFactor":0,
				"roughnessFactor":0.05000000074505806
			}
		},
		{
			"doubleSided":true,
			"extensions":{
				"KHR_materials_specular":{
					"specularColorFactor":[
						1,
						1,
						1
					]
				},
				"KHR_materials_ior":{
					"ior":1
				}
			},
			"name":"Metal",
			"pbrMetallicRoughness":{
				"baseColorFactor":[
					0.18221049010753632,
					0.800000011920929,
					0.02776317670941353,
					1
				],
				"roughnessFactor":0.10000000149011612
			}
		}
	],
	"meshes":[
		{
			"name":"Plane",
			"primitives":[
				{
					"attributes":{
						"POSITION":0,
						"NORMAL":1,
						"TEXCOORD_0":2
					},
					"indices":3,
					"material":0
				}
			]
		},
		{
			"name":"GlassSphere",
			"primitives":[
				{
					"attributes":{
						"POSITION":4,
						"NORMAL":5,
						"TEXCOORD_0":6
					},
					"indices":7,
					"material":1
				}
			]
		},
		{
			"name":"MetalSphere",
			"primitives":[
				{
					"attributes":{
						"POSITION":8,
						"NORMAL":9,
						"TEXCOORD_0":10
					},
					"indices":7,
					"material":2
				}
			]
		}
	],
	"textures":[
		{
			"sampler":0,
			"source":0
		}
	],
	"images":[
		{
			"bufferView":4,
			"mimeType":"image/png",
			"name":"checker"
		}
	],
	"accessors":[
		{
			"bufferView":0,
			"componentType":5126,
			"count":4,
			"max":[
				4.5,
				-1,
				4.5
			],
			"min":[
				-4.5,
				-1,
				-4.5
			],
			"type":"VEC3"
		},
		{
			"bufferView":1,
			"componentType":5126,
			"count":4,
			"type":"VEC3"
		},
		{
			"bufferView":2,
			"componentType":5126,
			"count":4,
			"type":"VEC2"
		},
		{
			"bufferView":3,
			"componentType":5123,
			"count":6,
			"type":"SCALAR"
		},
		{
			"bufferView":5,
			"componentType":5126,
			"count":559,
			"max":[
				-1.000000238418579,
				1,
				0.9999993443489075
			],
			"min":[
				-2.9999990463256836,
				-1,
				-1
			],
			"type":"VEC3"
		},
		{
			"bufferView":6,
			"componentType":5126,
			"count":559,
			"type":"VEC3"
		},
		{
			"bufferView":7,
			"componentType":5126,
			"count":559,
			"type":"VEC2"
		},
		{
			"bufferView":8,
			"componentType":5123,
			"count":2880,
			"type":"SCALAR"
		},
		{
			"bufferView":9,
			"componentType":5126,
			"count":559,
			"max":[
				2.999999761581421,
				1,
				0.9999993443489075
			],
			"min":[
				1.0000009536743164,
				-1,
				-1
			],
			"type":"VEC3"
		},
		{
			"bufferView":10,
			"componentType":5126,
			"count":559,
			"type":"VEC3"
		},
		{
			"bufferView":11,
			"componentType":5126,
			"count":559,
			"type":"VEC2"
		},
		{
			"bufferView":12,
			"componentType":5126,
			"count":20,
			"max":[
				0.095
			],
			"min":[
				0
			],
			"type":"SCALAR"
		},
		{
			"bufferView":13,
			"componentType":5126,
			"count":20,
			"type":"VEC3"
		},
		{
			"bufferView":14,
			"componentType":5126,
			"count":20,
			"type":"VEC3"
		}
	],
	"bufferViews":[
		{
			"buffer":0,
			"byteLength":48,
			"byteOffset":0,
			"target":34962
		},
		{
			"buffer":0,
			"byteLength":48,
			"byteOffset":48,
			"target":34962
		},
		{
			"buffer":0,
			"byteLength":32,
			"byteOffset":96,
			"target":34962
		},
		{
			"buffer":0,
			"byteLength":12,
			"byteOffset":128,
			"target":34963
		},
		{
			"buffer":0,
			"byteLength":1459,
			"byteOffset":140
		},
		{
			"buffer":0,
			"byteLength":6708,
			"byteOffset":1600,
			"target":34962
		},
		{
			"buffer":0,
			"byteLength":6708,
			"byteOffset":8308,
			"target":34962
		},
		{
			"buffer":0,
			"byteLength":4472,
			"byteOffset":15016,
			"target":34962
		},
		{
			"buffer":0,
			"byteLength":5760,
			"byteOffset":19488,
			"target":34963
		},
		{
			"buffer":0,
			"byteLength":6708,
			"byteOffset":25248,
			"target":34962
		},
		{
			"buffer":0,
			"byteLength":6708,
			"byteOffset":31956,
			"target":34962
		},
		{
			"buffer":0,
			"byteLength":4472,
			"byteOffset":38664,
			"target":34962
		},
		{
			"buffer":0,
			"byteLength":80,
			"byteOffset":43136
		},
		{
			"buffer":0,
			"byteLength":240,
			"byteOffset":43216
		},
		{
			"buffer":0,
			"byteLength":240,
			"byteOffset":43456
		}
	],
	"samplers":[
		{
			"magFilter":9729,
			"minFilter":9987
		}
	],
	"buffers":[
		{
			"byteLength":43696,
			"uri":"data:application/octet-stream;base64,"
		}
	]
}
