{
	"asset":{
		"generator":"Khronos glTF Blender I/O v3.6.27",
		"version":"2.0"
	},
	"extensionsUsed":[
		"KHR_materials_specular",
		"KHR_materials_ior",
		"KHR_materials_transmission",
		"KHR_materials_emissive_strength"
	],
	"scene":0,
	"scenes":[
		{
			"name":"Scene",
			"nodes":[
				0,
				1
			]
		}
	],
	"nodes":[
		{
			"mesh":0,
			"name":"fireplace_room"
		},
		{
			"name":"Origin"
		}
	],
	"animations":[
		{
			"channels":[
				{
					"sampler":0,
					"target":{
						"node":0,
						"path":"translation"
					}
				}
			],
			"name":"fireplace_roomAction.002",
			"samplers":[
				{
					"input":87,
					"interpolation":"LINEAR",
					"output":88
				}
			]
		}
	],
	"materials":[
		{
			"alphaMode":"BLEND",
			"doubleSided":true,
			"extensions":{
				"KHR_materials_specular":{
					"specularColorFactor":[
						1,
						1,
						1
					]
				},
				"KHR_materials_ior":{
					"ior":1
				}
			},
			"name":"grey_and_white_room:TableWood",
			"pbrMetallicRoughness":{
				"baseColorTexture":{
					"index":0
				},
				"metallicFactor":0.4000000059604645,
				"roughnessFactor":0.9922540187835693
			}
		},
		{
			"alphaMode":"BLEND",
			"doubleSided":true,
			"name":"grey_and_white_room:Glass",
			"pbrMetallicRoughness":{
				"baseColorFactor":[
					0.19017527997493744,
					0.19017527997493744,
					0.19017527997493744,
					1
				],
				"metallicFactor":0.8011049628257751,
				"roughnessFactor":0.12999999523162842
			}
		},
		{
			"alphaMode":"BLEND",
			"doubleSided":true,
			"extensions":{
				"KHR_materials_specular":{
					"specularColorFactor":[
						1,
						1,
						1
					]
				},
				"KHR_materials_ior":{
					"ior":1
				}
			},
			"name":"grey_and_white_room:BottleCap",
			"pbrMetallicRoughness":{
				"baseColorFactor":[
					0.46000000834465027,
					0,
					0,
					1
				],
				"metallicFactor":0.4000000059604645
			}
		},
		{
			"alphaMode":"BLEND",
			"doubleSided":true,
			"extensions":{
				"KHR_materials_specular":{
					"specularColorFactor":[
						1,
						1,
						1
					]
				},
				"KHR_materials_ior":{
					"ior":1
				}
			},
			"name":"grey_and_white_room:PaintingBack",
			"pbrMetallicRoughness":{
				"baseColorFactor":[
					0.25999999046325684,
					0.25,
					0.14000000059604645,
					1
				],
				"metallicFactor":0.4000000059604645
			}
		},
		{
			"alphaMode":"BLEND",
			"doubleSided":true,
			"extensions":{
				"KHR_materials_specular":{
					"specularColorFactor":[
						1,
						1,
						1
					]
				},
				"KHR_materials_ior":{
					"ior":1
				}
			},
			"name":"grey_and_white_room:MattePaint",
			"pbrMetallicRoughness":{
				"baseColorFactor":[
					0.8999999761581421,
					0.8999999761581421,
					0.8999999761581421,
					1
				],
				"metallicFactor":0.4000000059604645
			}
		},
		{
			"alphaMode":"BLEND",
			"doubleSided":true,
			"extensions":{
				"KHR_materials_specular":{
					"specularColorFactor":[
						1,
						1,
						1
					]
				},
				"KHR_materials_ior":{
					"ior":1
				}
			},
			"name":"grey_and_white_room:Painting",
			"pbrMetallicRoughness":{
				"baseColorTexture":{
					"index":1
				},
				"metallicFactor":0.4000000059604645
			}
		},
		{
			"alphaMode":"BLEND",
			"doubleSided":true,
			"extensions":{
				"KHR_materials_specular":{
					"specularColorFactor":[
						1,
						1,
						1
					]
				},
				"KHR_materials_ior":{
					"ior":1
				}
			},
			"name":"grey_and_white_room:Leaves",
			"pbrMetallicRoughness":{
				"baseColorTexture":{
					"index":2
				},
				"metallicFactor":0.4000000059604645,
				"roughnessFactor":0.9922540187835693
			}
		},
		{
			"alphaMode":"BLEND",
			"doubleSided":true,
			"extensions":{
				"KHR_materials_specular":{
					"specularColorFactor":[
						1,
						1,
						1
					]
				},
				"KHR_materials_ior":{
					"ior":1
				}
			},
			"name":"grey_and_white_room:Branches",
			"pbrMetallicRoughness":{
				"baseColorFactor":[
					0.1599999964237213,
					0.07999999821186066,
					0.019999999552965164,
					1
				],
				"metallicFactor":0.4000000059604645
			}
		},
		{
			"alphaMode":"BLEND",
			"doubleSided":true,
			"extensions":{
				"KHR_materials_specular":{
					"specularColorFactor":[
						1,
						1,
						1
					]
				},
				"KHR_materials_ior":{
					"ior":1
				}
			},
			"name":"grey_and_white_room:Dirt",
			"pbrMetallicRoughness":{
				"baseColorFactor":[
					0.10000000149011612,
					0.05000000074505806,
					0.03999999910593033,
					1
				],
				"metallicFactor":0.4000000059604645
			}
		},
		{
			"alphaMode":"BLEND",
			"doubleSided":true,
			"extensions":{
				"KHR_materials_specular":{
					"specularColorFactor":[
						1,
						1,
						1
					]
				},
				"KHR_materials_ior":{
					"ior":1
				}
			},
			"name":"grey_and_white_room:PlantPot",
			"pbrMetallicRoughness":{
				"baseColorFactor":[
					0.10000000149011612,
					0.10000000149011612,
					0.10000000149011612,
					1
				],
				"metallicFactor":0.4000000059604645
			}
		},
		{
			"alphaMode":"BLEND",
			"doubleSided":true,
			"extensions":{
				"KHR_materials_specular":{
					"specularColorFactor":[
						1,
						1,
						1
					]
				},
				"KHR_materials_ior":{
					"ior":1
				}
			},
			"name":"grey_and_white_room:SofaLegs",
			"pbrMetallicRoughness":{
				"baseColorFactor":[
					0.10000000149011612,
					0.10000000149011612,
					0.10000000149011612,
					1
				],
				"metallicFactor":0.4000000059604645
			}
		},
		{
			"alphaMode":"BLEND",
			"doubleSided":true,
			"extensions":{
				"KHR_materials_specular":{
					"specularColorFactor":[
						1,
						1,
						1
					]
				},
				"KHR_materials_ior":{
					"ior":1
				}
			},
			"name":"grey_and_white_room:Sofa",
			"pbrMetallicRoughness":{
				"baseColorFactor":[
					0.8999999761581421,
					0.8999999761581421,
					0.8799999952316284,
					1
				],
				"metallicFactor":0.4000000059604645
			}
		},
		{
			"alphaMode":"BLEND",
			"doubleSided":true,
			"extensions":{
				"KHR_materials_specular":{
					"specularColorFactor":[
						1,
						1,
						1
					]
				},
				"KHR_materials_ior":{
					"ior":1
				}
			},
			"name":"grey_and_white_room:Paneling",
			"pbrMetallicRoughness":{
				"baseColorFactor":[
					0.8999999761581421,
					0.8999999761581421,
					0.8999999761581421,
					1
				],
				"metallicFactor":0,
				"roughnessFactor":0.9292893409729004
			}
		},
		{
			"alphaMode":"BLEND",
			"doubleSided":true,
			"extensions":{
				"KHR_materials_specular":{
					"specularColorFactor":[
						1,
						1,
						1
					]
				},
				"KHR_materials_ior":{
					"ior":1
				}
			},
			"name":"grey_and_white_room:Walls",
			"pbrMetallicRoughness":{
				"baseColorFactor":[
					0.17000000178813934,
					0.13199999928474426,
					0.10000000149011612,
					1
				],
				"metallicFactor":0
			}
		},
		{
			"alphaMode":"BLEND",
			"doubleSided":true,
			"extensions":{
				"KHR_materials_specular":{
					"specularColorFactor":[
						1,
						1,
						1
					]
				},
				"KHR_materials_ior":{
					"ior":1
				}
			},
			"name":"grey_and_white_room:Floor",
			"pbrMetallicRoughness":{
				"baseColorTexture":{
					"index":3
				},
				"metallicFactor":0,
				"roughnessFactor":0.8999999761581421
			}
		},
		{
			"doubleSided":true,
			"extensions":{
				"KHR_materials_specular":{
					"specularColorFactor":[
						1,
						1,
						1
					]
				},
				"KHR_materials_ior":{
					"ior":1
				}
			},
			"name":"grey_and_white_room:Mirror",
			"pbrMetallicRoughness":{
				"baseColorFactor":[
					0.800000011920929,
					0.800000011920929,
					0.800000011920929,
					1
				],
				"roughnessFactor":0
			}
		},
		{
			"alphaMode":"BLEND",
			"doubleSided":true,
			"extensions":{
				"KHR_materials_transmission":{
					"transmissionFactor":0.49723756313323975
				},
				"KHR_materials_specular":{
					"specularColorFactor":[
						0.5977900520049406,
						0.5977900520049406,
						0.5977900520049406
					]
				}
			},
			"name":"grey_and_white_room:FireplaceGlass",
			"pbrMetallicRoughness":{
				"baseColorFactor":[
					0,
					0,
					0,
					1
				],
				"metallicFactor":0.4000000059604645,
				"roughnessFactor":0.6837722063064575
			}
		},
		{
			"alphaMode":"BLEND",
			"doubleSided":true,
			"extensions":{
				"KHR_materials_specular":{
					"specularColorFactor":[
						1,
						1,
						1
					]
				},
				"KHR_materials_ior":{
					"ior":1
				}
			},
			"name":"grey_and_white_room:BrushedStainlessSteel",
			"pbrMetallicRoughness":{
				"baseColorFactor":[
					0,
					0,
					0,
					1
				],
				"metallicFactor":0.4000000059604645,
				"roughnessFactor":0.9292893409729004
			}
		},
		{
			"alphaMode":"BLEND",
			"doubleSided":true,
			"extensions":{
				"KHR_materials_specular":{
					"specularColorFactor":[
						1,
						1,
						1
					]
				},
				"KHR_materials_ior":{
					"ior":1
				}
			},
			"name":"grey_and_white_room:Transluscent",
			"pbrMetallicRoughness":{
				"baseColorFactor":[
					0.30000001192092896,
					0.30000001192092896,
					0.30000001192092896,
					1
				],
				"metallicFactor":0.4000000059604645
			}
		},
		{
			"alphaMode":"BLEND",
			"doubleSided":true,
			"extensions":{
				"KHR_materials_specular":{
					"specularColorFactor":[
						1,
						1,
						1
					]
				},
				"KHR_materials_ior":{
					"ior":1
				}
			},
			"name":"grey_and_white_room:initialShadingGroup",
			"pbrMetallicRoughness":{
				"baseColorFactor":[
					0.5,
					0.5,
					0.5,
					1
				],
				"metallicFactor":0
			}
		},
		{
			"alphaMode":"BLEND",
			"doubleSided":true,
			"emissiveFactor":[
				1,
				1,
				1
			],
			"extensions":{
				"KHR_materials_emissive_strength":{
					"emissiveStrength":4
				},
				"KHR_materials_specular":{
					"specularColorFactor":[
						1,
						1,
						1
					]
				},
				"KHR_materials_ior":{
					"ior":1
				}
			},
			"name":"lambert3SG",
			"pbrMetallicRoughness":{
				"baseColorFactor":[
					0,
					0,
					0,
					1
				],
				"metallicFactor":0
			}
		},
		{
			"alphaMode":"BLEND",
			"doubleSided":true,
			"emissiveFactor":[
				1,
				1,
				1
			],
			"extensions":{
				"KHR_materials_emissive_strength":{
					"emissiveStrength":40
				},
				"KHR_materials_specular":{
					"specularColorFactor":[
						1,
						1,
						1
					]
				},
				"KHR_materials_ior":{
					"ior":1
				}
			},
			"name":"grey_and_white_room:lambert2SG_light",
			"pbrMetallicRoughness":{
				"baseColorFactor":[
					0,
					0,
					0,
					1
				],
				"metallicFactor":0
			}
		}
	],
	"meshes":[
		{
			"name":"fireplace_room",
			"primitives":[
				{
					"attributes":{
						"POSITION":0,
						"NORMAL":1,
						"TEXCOORD_0":2
					},
					"indices":3,
					"material":0
				},
				{
					"attributes":{
						"POSITION":4,
						"NORMAL":5,
						"TEXCOORD_0":6
					},
					"indices":7,
					"material":1
				},
				{
					"attributes":{
						"POSITION":8,
						"NORMAL":9,
						"TEXCOORD_0":10
					},
					"indices":11,
					"material":2
				},
				{
					"attributes":{
						"POSITION":12,
						"NORMAL":13,
						"TEXCOORD_0":14
					},
					"indices":15,
					"material":3
				},
				{
					"attributes":{
						"POSITION":16,
						"NORMAL":17,
						"TEXCOORD_0":18
					},
					"indices":19,
					"material":4
				},
				{
					"attributes":{
						"POSITION":20,
						"NORMAL":21,
						"TEXCOORD_0":22
					},
					"indices":23,
					"material":5
				},
				{
					"attributes":{
						"POSITION":24,
						"NORMAL":25,
						"TEXCOORD_0":26
					},
					"indices":27,
					"material":6
				},
				{
					"attributes":{
						"POSITION":28,
						"NORMAL":29,
						"TEXCOORD_0":30
					},
					"indices":31,
					"material":7
				},
				{
					"attributes":{
						"POSITION":32,
						"NORMAL":33,
						"TEXCOORD_0":34
					},
					"indices":35,
					"material":8
				},
				{
					"attributes":{
						"POSITION":36,
						"NORMAL":37,
						"TEXCOORD_0":38
					},
					"indices":39,
					"material":9
				},
				{
					"attributes":{
						"POSITION":40,
						"NORMAL":41,
						"TEXCOORD_0":42
					},
					"indices":43,
					"material":10
				},
				{
					"attributes":{
						"POSITION":44,
						"NORMAL":45,
						"TEXCOORD_0":46
					},
					"indices":47,
					"material":11
				},
				{
					"attributes":{
						"POSITION":48,
						"NORMAL":49,
						"TEXCOORD_0":50
					},
					"indices":51,
					"material":12
				},
				{
					"attributes":{
						"POSITION":52,
						"NORMAL":53,
						"TEXCOORD_0":54
					},
					"indices":55,
					"material":13
				},
				{
					"attributes":{
						"POSITION":56,
						"NORMAL":57,
						"TEXCOORD_0":58
					},
					"indices":59,
					"material":14
				},
				{
					"attributes":{
						"POSITION":60,
						"NORMAL":61,
						"TEXCOORD_0":62
					},
					"indices":63,
					"material":15
				},
				{
					"attributes":{
						"POSITION":64,
						"NORMAL":65,
						"TEXCOORD_0":66
					},
					"indices":67,
					"material":16
				},
				{
					"attributes":{
						"POSITION":68,
						"NORMAL":69,
						"TEXCOORD_0":70
					},
					"indices":71,
					"material":17
				},
				{
					"attributes":{
						"POSITION":72,
						"NORMAL":73,
						"TEXCOORD_0":74
					},
					"indices":75,
					"material":18
				},
				{
					"attributes":{
						"POSITION":76,
						"NORMAL":77,
						"TEXCOORD_0":78
					},
					"indices":79,
					"material":19
				},
				{
					"attributes":{
						"POSITION":80,
						"NORMAL":81,
						"TEXCOORD_0":82
					},
					"indices":83,
					"material":20
				},
				{
					"attributes":{
						"POSITION":84,
						"NORMAL":85,
						"TEXCOORD_0":86
					},
					"indices":83,
					"material":21
				}
			]
		}
	],
	"textures":[
		{
			"sampler":0,
			"source":0
		},
		{
			"sampler":0,
			"source":1
		},
		{
			"sampler":0,
			"source":2
		},
		{
			"sampler":0,
			"source":3
		}
	],
	"images":[
		{
			"mimeType":"image/jpeg",
			"name":"wood5",
			"uri":"wood5.jpg"
		},
		{
			"mimeType":"image/jpeg",
			"name":"picture8",
			"uri":"picture8.jpg"
		},
		{
			"mimeType":"image/jpeg",
			"name":"leaf",
			"uri":"leaf.jpg"
		},
		{
			"mimeType":"image/jpeg",
			"name":"wood",
			"uri":"wood.jpg"
		}
	],
	"accessors":[
		{
			"bufferView":0,
			"componentType":5126,
			"count":24980,
			"max":[
				6.0527496337890625,
				4.884538173675537,
				-3.1127524375915527
			],
			"min":[
				3.5516250133514404,
				-0.007654851768165827,
				-9.072412490844727
			],
			"type":"VEC3"
		},
		{
			"bufferView":1,
			"componentType":5126,
			"count":24980,
			"type":"VEC3"
		},
		{
			"bufferView":2,
			"componentType":5126,
			"count":24980,
			"type":"VEC2"
		},
		{
			"bufferView":3,
			"componentType":5123,
			"count":35676,
			"type":"SCALAR"
		},
		{
			"bufferView":4,
			"componentType":5126,
			"count":20703,
			"max":[
				5.0807623863220215,
				2.258395195007324,
				-3.9487173557281494
			],
			"min":[
				4.626625061035156,
				1.572007656097412,
				-4.417634963989258
			],
			"type":"VEC3"
		},
		{
			"bufferView":5,
			"componentType":5126,
			"count":20703,
			"type":"VEC3"
		},
		{
			"bufferView":6,
			"componentType":5126,
			"count":20703,
			"type":"VEC2"
		},
		{
			"bufferView":7,
			"componentType":5123,
			"count":33498,
			"type":"SCALAR"
		},
		{
			"bufferView":8,
			"componentType":5126,
			"count":11046,
			"max":[
				4.78392219543457,
				2.4278175830841064,
				-4.2603373527526855
			],
			"min":[
				4.694242477416992,
				2.2510502338409424,
				-4.350019931793213
			],
			"type":"VEC3"
		},
		{
			"bufferView":9,
			"componentType":5126,
			"count":11046,
			"type":"VEC3"
		},
		{
			"bufferView":10,
			"componentType":5126,
			"count":11046,
			"type":"VEC2"
		},
		{
			"bufferView":11,
			"componentType":5123,
			"count":11136,
			"type":"SCALAR"
		},
		{
			"bufferView":12,
			"componentType":5126,
			"count":46,
			"max":[
				5.9663896560668945,
				4.80814790725708,
				-8.979372024536133
			],
			"min":[
				3.6051249504089355,
				2.933790683746338,
				-9.02779769897461
			],
			"type":"VEC3"
		},
		{
			"bufferView":13,
			"componentType":5126,
			"count":46,
			"type":"VEC3"
		},
		{
			"bufferView":14,
			"componentType":5126,
			"count":46,
			"type":"VEC2"
		},
		{
			"bufferView":15,
			"componentType":5123,
			"count":72,
			"type":"SCALAR"
		},
		{
			"bufferView":16,
			"componentType":5126,
			"count":25932,
			"max":[
				12.805012702941895,
				7.197502613067627,
				1.060282588005066
			],
			"min":[
				-0.9611075520515442,
				-4.6346418258735866e-08,
				-9.088447570800781
			],
			"type":"VEC3"
		},
		{
			"bufferView":17,
			"componentType":5126,
			"count":25932,
			"type":"VEC3"
		},
		{
			"bufferView":18,
			"componentType":5126,
			"count":25932,
			"type":"VEC2"
		},
		{
			"bufferView":19,
			"componentType":5123,
			"count":40728,
			"type":"SCALAR"
		},
		{
			"bufferView":20,
			"componentType":5126,
			"count":4,
			"max":[
				5.552892684936523,
				4.4236931800842285,
				-9.01889705657959
			],
			"min":[
				3.967892646789551,
				3.3086578845977783,
				-9.04295539855957
			],
			"type":"VEC3"
		},
		{
			"bufferView":21,
			"componentType":5126,
			"count":4,
			"type":"VEC3"
		},
		{
			"bufferView":22,
			"componentType":5126,
			"count":4,
			"type":"VEC2"
		},
		{
			"bufferView":23,
			"componentType":5123,
			"count":6,
			"type":"SCALAR"
		},
		{
			"bufferView":24,
			"componentType":5126,
			"count":8988,
			"max":[
				8.341409683227539,
				1.9022951126098633,
				0.9445500373840332
			],
			"min":[
				1.1919975280761719,
				0.5254449844360352,
				-0.5618324279785156
			],
			"type":"VEC3"
		},
		{
			"bufferView":25,
			"componentType":5126,
			"count":8988,
			"type":"VEC3"
		},
		{
			"bufferView":26,
			"componentType":5126,
			"count":8988,
			"type":"VEC2"
		},
		{
			"bufferView":27,
			"componentType":5123,
			"count":9792,
			"type":"SCALAR"
		},
		{
			"bufferView":28,
			"componentType":5126,
			"count":5370,
			"max":[
				8.010125160217285,
				1.919967532157898,
				0.8088850975036621
			],
			"min":[
				1.2739224433898926,
				0.5009725093841553,
				-0.3968149423599243
			],
			"type":"VEC3"
		},
		{
			"bufferView":29,
			"componentType":5126,
			"count":5370,
			"type":"VEC3"
		},
		{
			"bufferView":30,
			"componentType":5126,
			"count":5370,
			"type":"VEC2"
		},
		{
			"bufferView":31,
			"componentType":5123,
			"count":5472,
			"type":"SCALAR"
		},
		{
			"bufferView":32,
			"componentType":5126,
			"count":744,
			"max":[
				7.824900150299072,
				0.5911099910736084,
				0.5285824537277222
			],
			"min":[
				1.5062675476074219,
				0.5665174722671509,
				-0.2426374852657318
			],
			"type":"VEC3"
		},
		{
			"bufferView":33,
			"componentType":5126,
			"count":744,
			"type":"VEC3"
		},
		{
			"bufferView":34,
			"componentType":5126,
			"count":744,
			"type":"VEC2"
		},
		{
			"bufferView":35,
			"componentType":5123,
			"count":744,
			"type":"SCALAR"
		},
		{
			"bufferView":36,
			"componentType":5126,
			"count":1460,
			"max":[
				7.867770195007324,
				0.6194850206375122,
				0.5714575052261353
			],
			"min":[
				1.4633549451828003,
				-2.1782039283380072e-08,
				-0.285554975271225
			],
			"type":"VEC3"
		},
		{
			"bufferView":37,
			"componentType":5126,
			"count":1460,
			"type":"VEC3"
		},
		{
			"bufferView":38,
			"componentType":5126,
			"count":1460,
			"type":"VEC2"
		},
		{
			"bufferView":39,
			"componentType":5123,
			"count":4104,
			"type":"SCALAR"
		},
		{
			"bufferView":40,
			"componentType":5126,
			"count":230,
			"max":[
				7.17330265045166,
				0.2562253773212433,
				-7.411100387573242
			],
			"min":[
				2.362027406692505,
				-0.006177175790071487,
				-8.878859519958496
			],
			"type":"VEC3"
		},
		{
			"bufferView":41,
			"componentType":5126,
			"count":230,
			"type":"VEC3"
		},
		{
			"bufferView":42,
			"componentType":5126,
			"count":230,
			"type":"VEC2"
		},
		{
			"bufferView":43,
			"componentType":5123,
			"count":288,
			"type":"SCALAR"
		},
		{
			"bufferView":44,
			"componentType":5126,
			"count":163834,
			"max":[
				7.25332498550415,
				2.0335304737091064,
				-7.117094993591309
			],
			"min":[
				2.266282558441162,
				0.2421378493309021,
				-8.988627433776855
			],
			"type":"VEC3"
		},
		{
			"bufferView":45,
			"componentType":5126,
			"count":163834,
			"type":"VEC3"
		},
		{
			"bufferView":46,
			"componentType":5126,
			"count":163834,
			"type":"VEC2"
		},
		{
			"bufferView":47,
			"componentType":5125,
			"count":200880,
			"type":"SCALAR"
		},
		{
			"bufferView":48,
			"componentType":5126,
			"count":38492,
			"max":[
				12.806705474853516,
				7.197853088378906,
				1.4820977449417114
			],
			"min":[
				-1.2835699319839478,
				-0.0014275462599471211,
				-9.08369255065918
			],
			"type":"VEC3"
		},
		{
			"bufferView":49,
			"componentType":5126,
			"count":38492,
			"type":"VEC3"
		},
		{
			"bufferView":50,
			"componentType":5126,
			"count":38492,
			"type":"VEC2"
		},
		{
			"bufferView":51,
			"componentType":5123,
			"count":58338,
			"type":"SCALAR"
		},
		{
			"bufferView":52,
			"componentType":5126,
			"count":200,
			"max":[
				12.805012702941895,
				7.197502613067627,
				0.6797676086425781
			],
			"min":[
				0,
				-2.9713580929069394e-08,
				-9.08199691772461
			],
			"type":"VEC3"
		},
		{
			"bufferView":53,
			"componentType":5126,
			"count":200,
			"type":"VEC3"
		},
		{
			"bufferView":54,
			"componentType":5126,
			"count":200,
			"type":"VEC2"
		},
		{
			"bufferView":55,
			"componentType":5123,
			"count":684,
			"type":"SCALAR"
		},
		{
			"bufferView":56,
			"componentType":5126,
			"count":75,
			"max":[
				12.805012702941895,
				3.969867066189181e-07,
				1.0602824687957764
			],
			"min":[
				-0.9611075520515442,
				-4.6346418258735866e-08,
				-9.08199691772461
			],
			"type":"VEC3"
		},
		{
			"bufferView":57,
			"componentType":5126,
			"count":75,
			"type":"VEC3"
		},
		{
			"bufferView":58,
			"componentType":5126,
			"count":75,
			"type":"VEC2"
		},
		{
			"bufferView":59,
			"componentType":5123,
			"count":333,
			"type":"SCALAR"
		},
		{
			"bufferView":60,
			"componentType":5126,
			"count":20,
			"max":[
				5.60690975189209,
				5.693492412567139,
				-0.04944474995136261
			],
			"min":[
				3.782910108566284,
				2.3749749660491943,
				-0.05950738862156868
			],
			"type":"VEC3"
		},
		{
			"bufferView":61,
			"componentType":5126,
			"count":20,
			"type":"VEC3"
		},
		{
			"bufferView":62,
			"componentType":5126,
			"count":20,
			"type":"VEC2"
		},
		{
			"bufferView":63,
			"componentType":5123,
			"count":30,
			"type":"SCALAR"
		},
		{
			"bufferView":64,
			"componentType":5126,
			"count":16,
			"max":[
				6.0748724937438965,
				0.07899504154920578,
				0.6757500171661377
			],
			"min":[
				3.387550115585327,
				-2.9537972068283125e-08,
				-0.9274799823760986
			],
			"type":"VEC3"
		},
		{
			"bufferView":65,
			"componentType":5126,
			"count":16,
			"type":"VEC3"
		},
		{
			"bufferView":66,
			"componentType":5126,
			"count":16,
			"type":"VEC2"
		},
		{
			"bufferView":67,
			"componentType":5123,
			"count":24,
			"type":"SCALAR"
		},
		{
			"bufferView":68,
			"componentType":5126,
			"count":20482,
			"max":[
				8.205039978027344,
				4.880130290985107,
				1.1084650754928589
			],
			"min":[
				1.1832125186920166,
				1.7896474599838257,
				-8.976860046386719
			],
			"type":"VEC3"
		},
		{
			"bufferView":69,
			"componentType":5126,
			"count":20482,
			"type":"VEC3"
		},
		{
			"bufferView":70,
			"componentType":5126,
			"count":20482,
			"type":"VEC2"
		},
		{
			"bufferView":71,
			"componentType":5123,
			"count":27456,
			"type":"SCALAR"
		},
		{
			"bufferView":72,
			"componentType":5126,
			"count":165,
			"max":[
				7.891435146331787,
				4.774125576019287,
				-8.958417892456055
			],
			"min":[
				1.7832750082015991,
				4.079285621643066,
				-8.972328186035156
			],
			"type":"VEC3"
		},
		{
			"bufferView":73,
			"componentType":5126,
			"count":165,
			"type":"VEC3"
		},
		{
			"bufferView":74,
			"componentType":5126,
			"count":165,
			"type":"VEC2"
		},
		{
			"bufferView":75,
			"componentType":5123,
			"count":228,
			"type":"SCALAR"
		},
		{
			"bufferView":76,
			"componentType":5126,
			"count":4,
			"max":[
				5.8483476638793945,
				2.0632598400115967,
				0.6797676086425781
			],
			"min":[
				3.5522100925445557,
				2.0632598400115967,
				-0.05089741200208664
			],
			"type":"VEC3"
		},
		{
			"bufferView":77,
			"componentType":5126,
			"count":4,
			"type":"VEC3"
		},
		{
			"bufferView":78,
			"componentType":5126,
			"count":4,
			"type":"VEC2"
		},
		{
			"bufferView":79,
			"componentType":5123,
			"count":6,
			"type":"SCALAR"
		},
		{
			"bufferView":80,
			"componentType":5126,
			"count":8,
			"max":[
				8.63066291809082,
				6.037572860717773,
				1.4969127178192139
			],
			"min":[
				0.7114499807357788,
				1.712804913520813,
				1.4969125986099243
			],
			"type":"VEC3"
		},
		{
			"bufferView":81,
			"componentType":5126,
			"count":8,
			"type":"VEC3"
		},
		{
			"bufferView":82,
			"componentType":5126,
			"count":8,
			"type":"VEC2"
		},
		{
			"bufferView":83,
			"componentType":5123,
			"count":12,
			"type":"SCALAR"
		},
		{
			"bufferView":84,
			"componentType":5126,
			"count":8,
			"max":[
				-1.2375075817108154,
				6.098110675811768,
				-0.3060147166252136
			],
			"min":[
				-1.2375075817108154,
				1.840475082397461,
				-7.543922424316406
			],
			"type":"VEC3"
		},
		{
			"bufferView":85,
			"componentType":5126,
			"count":8,
			"type":"VEC3"
		},
		{
			"bufferView":86,
			"componentType":5126,
			"count":8,
			"type":"VEC2"
		},
		{
			"bufferView":87,
			"componentType":5126,
			"count":201,
			"max":[
				1
			],
			"min":[
				0
			],
			"type":"SCALAR"
		},
		{
			"bufferView":88,
			"componentType":5126,
			"count":201,
			"type":"VEC3"
		}
	],
	"bufferViews":[
		{
			"buffer":0,
			"byteLength":299760,
			"byteOffset":0,
			"target":34962
		},
		{
			"buffer":0,
			"byteLength":299760,
			"byteOffset":299760,
			"target":34962
		},
		{
			"buffer":0,
			"byteLength":199840,
			"byteOffset":599520,
			"target":34962
		},
		{
			"buffer":0,
			"byteLength":71352,
			"byteOffset":799360,
			"target":34963
		},
		{
			"buffer":0,
			"byteLength":248436,
			"byteOffset":870712,
			"target":34962
		},
		{
			"buffer":0,
			"byteLength":248436,
			"byteOffset":1119148,
			"target":34962
		},
		{
			"buffer":0,
			"byteLength":165624,
			"byteOffset":1367584,
			"target":34962
		},
		{
			"buffer":0,
			"byteLength":66996,
			"byteOffset":1533208,
			"target":34963
		},
		{
			"buffer":0,
			"byteLength":132552,
			"byteOffset":1600204,
			"target":34962
		},
		{
			"buffer":0,
			"byteLength":132552,
			"byteOffset":1732756,
			"target":34962
		},
		{
			"buffer":0,
			"byteLength":88368,
			"byteOffset":1865308,
			"target":34962
		},
		{
			"buffer":0,
			"byteLength":22272,
			"byteOffset":1953676,
			"target":34963
		},
		{
			"buffer":0,
			"byteLength":552,
			"byteOffset":1975948,
			"target":34962
		},
		{
			"buffer":0,
			"byteLength":552,
			"byteOffset":1976500,
			"target":34962
		},
		{
			"buffer":0,
			"byteLength":368,
			"byteOffset":1977052,
			"target":34962
		},
		{
			"buffer":0,
			"byteLength":144,
			"byteOffset":1977420,
			"target":34963
		},
		{
			"buffer":0,
			"byteLength":311184,
			"byteOffset":1977564,
			"target":34962
		},
		{
			"buffer":0,
			"byteLength":311184,
			"byteOffset":2288748,
			"target":34962
		},
		{
			"buffer":0,
			"byteLength":207456,
			"byteOffset":2599932,
			"target":34962
		},
		{
			"buffer":0,
			"byteLength":81456,
			"byteOffset":2807388,
			"target":34963
		},
		{
			"buffer":0,
			"byteLength":48,
			"byteOffset":2888844,
			"target":34962
		},
		{
			"buffer":0,
			"byteLength":48,
			"byteOffset":2888892,
			"target":34962
		},
		{
			"buffer":0,
			"byteLength":32,
			"byteOffset":2888940,
			"target":34962
		},
		{
			"buffer":0,
			"byteLength":12,
			"byteOffset":2888972,
			"target":34963
		},
		{
			"buffer":0,
			"byteLength":107856,
			"byteOffset":2888984,
			"target":34962
		},
		{
			"buffer":0,
			"byteLength":107856,
			"byteOffset":2996840,
			"target":34962
		},
		{
			"buffer":0,
			"byteLength":71904,
			"byteOffset":3104696,
			"target":34962
		},
		{
			"buffer":0,
			"byteLength":19584,
			"byteOffset":3176600,
			"target":34963
		},
		{
			"buffer":0,
			"byteLength":64440,
			"byteOffset":3196184,
			"target":34962
		},
		{
			"buffer":0,
			"byteLength":64440,
			"byteOffset":3260624,
			"target":34962
		},
		{
			"buffer":0,
			"byteLength":42960,
			"byteOffset":3325064,
			"target":34962
		},
		{
			"buffer":0,
			"byteLength":10944,
			"byteOffset":3368024,
			"target":34963
		},
		{
			"buffer":0,
			"byteLength":8928,
			"byteOffset":3378968,
			"target":34962
		},
		{
			"buffer":0,
			"byteLength":8928,
			"byteOffset":3387896,
			"target":34962
		},
		{
			"buffer":0,
			"byteLength":5952,
			"byteOffset":3396824,
			"target":34962
		},
		{
			"buffer":0,
			"byteLength":1488,
			"byteOffset":3402776,
			"target":34963
		},
		{
			"buffer":0,
			"byteLength":17520,
			"byteOffset":3404264,
			"target":34962
		},
		{
			"buffer":0,
			"byteLength":17520,
			"byteOffset":3421784,
			"target":34962
		},
		{
			"buffer":0,
			"byteLength":11680,
			"byteOffset":3439304,
			"target":34962
		},
		{
			"buffer":0,
			"byteLength":8208,
			"byteOffset":3450984,
			"target":34963
		},
		{
			"buffer":0,
			"byteLength":2760,
			"byteOffset":3459192,
			"target":34962
		},
		{
			"buffer":0,
			"byteLength":2760,
			"byteOffset":3461952,
			"target":34962
		},
		{
			"buffer":0,
			"byteLength":1840,
			"byteOffset":3464712,
			"target":34962
		},
		{
			"buffer":0,
			"byteLength":576,
			"byteOffset":3466552,
			"target":34963
		},
		{
			"buffer":0,
			"byteLength":1966008,
			"byteOffset":3467128,
			"target":34962
		},
		{
			"buffer":0,
			"byteLength":1966008,
			"byteOffset":5433136,
			"target":34962
		},
		{
			"buffer":0,
			"byteLength":1310672,
			"byteOffset":7399144,
			"target":34962
		},
		{
			"buffer":0,
			"byteLength":803520,
			"byteOffset":8709816,
			"target":34963
		},
		{
			"buffer":0,
			"byteLength":461904,
			"byteOffset":9513336,
			"target":34962
		},
		{
			"buffer":0,
			"byteLength":461904,
			"byteOffset":9975240,
			"target":34962
		},
		{
			"buffer":0,
			"byteLength":307936,
			"byteOffset":10437144,
			"target":34962
		},
		{
			"buffer":0,
			"byteLength":116676,
			"byteOffset":10745080,
			"target":34963
		},
		{
			"buffer":0,
			"byteLength":2400,
			"byteOffset":10861756,
			"target":34962
		},
		{
			"buffer":0,
			"byteLength":2400,
			"byteOffset":10864156,
			"target":34962
		},
		{
			"buffer":0,
			"byteLength":1600,
			"byteOffset":10866556,
			"target":34962
		},
		{
			"buffer":0,
			"byteLength":1368,
			"byteOffset":10868156,
			"target":34963
		},
		{
			"buffer":0,
			"byteLength":900,
			"byteOffset":10869524,
			"target":34962
		},
		{
			"buffer":0,
			"byteLength":900,
			"byteOffset":10870424,
			"target":34962
		},
		{
			"buffer":0,
			"byteLength":600,
			"byteOffset":10871324,
			"target":34962
		},
		{
			"buffer":0,
			"byteLength":666,
			"byteOffset":10871924,
			"target":34963
		},
		{
			"buffer":0,
			"byteLength":240,
			"byteOffset":10872592,
			"target":34962
		},
		{
			"buffer":0,
			"byteLength":240,
			"byteOffset":10872832,
			"target":34962
		},
		{
			"buffer":0,
			"byteLength":160,
			"byteOffset":10873072,
			"target":34962
		},
		{
			"buffer":0,
			"byteLength":60,
			"byteOffset":10873232,
			"target":34963
		},
		{
			"buffer":0,
			"byteLength":192,
			"byteOffset":10873292,
			"target":34962
		},
		{
			"buffer":0,
			"byteLength":192,
			"byteOffset":10873484,
			"target":34962
		},
		{
			"buffer":0,
			"byteLength":128,
			"byteOffset":10873676,
			"target":34962
		},
		{
			"buffer":0,
			"byteLength":48,
			"byteOffset":10873804,
			"target":34963
		},
		{
			"buffer":0,
			"byteLength":245784,
			"byteOffset":10873852,
			"target":34962
		},
		{
			"buffer":0,
			"byteLength":245784,
			"byteOffset":11119636,
			"target":34962
		},
		{
			"buffer":0,
			"byteLength":163856,
			"byteOffset":11365420,
			"target":34962
		},
		{
			"buffer":0,
			"byteLength":54912,
			"byteOffset":11529276,
			"target":34963
		},
		{
			"buffer":0,
			"byteLength":1980,
			"byteOffset":11584188,
			"target":34962
		},
		{
			"buffer":0,
			"byteLength":1980,
			"byteOffset":11586168,
			"target":34962
		},
		{
			"buffer":0,
			"byteLength":1320,
			"byteOffset":11588148,
			"target":34962
		},
		{
			"buffer":0,
			"byteLength":456,
			"byteOffset":11589468,
			"target":34963
		},
		{
			"buffer":0,
			"byteLength":48,
			"byteOffset":11589924,
			"target":34962
		},
		{
			"buffer":0,
			"byteLength":48,
			"byteOffset":11589972,
			"target":34962
		},
		{
			"buffer":0,
			"byteLength":32,
			"byteOffset":11590020,
			"target":34962
		},
		{
			"buffer":0,
			"byteLength":12,
			"byteOffset":11590052,
			"target":34963
		},
		{
			"buffer":0,
			"byteLength":96,
			"byteOffset":11590064,
			"target":34962
		},
		{
			"buffer":0,
			"byteLength":96,
			"byteOffset":11590160,
			"target":34962
		},
		{
			"buffer":0,
			"byteLength":64,
			"byteOffset":11590256,
			"target":34962
		},
		{
			"buffer":0,
			"byteLength":24,
			"byteOffset":11590320,
			"target":34963
		},
		{
			"buffer":0,
			"byteLength":96,
			"byteOffset":11590344,
			"target":34962
		},
		{
			"buffer":0,
			"byteLength":96,
			"byteOffset":11590440,
			"target":34962
		},
		{
			"buffer":0,
			"byteLength":64,
			"byteOffset":11590536,
			"target":34962
		},
		{
			"buffer":0,
			"byteLength":804,
			"byteOffset":11590600
		},
		{
			"buffer":0,
			"byteLength":2412,
			"byteOffset":11591404
		}
	],
	"samplers":[
		{
			"magFilter":9729,
			"minFilter":9987
		}
	],
	"buffers":[
		{
			"byteLength":11593816,
			"uri":"fireplace.bin"
		}
	]
}
