{
	"asset":{
		"generator":"Khronos glTF Blender I/O v3.6.27",
		"version":"2.0"
	},
	"extensionsUsed":[
		"KHR_materials_specular",
		"KHR_materials_ior",
		"KHR_materials_emissive_strength",
		"KHR_materials_transmission"
	],
	"scene":0,
	"scenes":[
		{
			"name":"Scene",
			"nodes":[
				0,
				1,
				2,
				3,
				4,
				5,
				6,
				7
			]
		}
	],
	"nodes":[
		{
			"mesh":0,
			"name":"RightWall"
		},
		{
			"mesh":1,
			"name":"LeftWall"
		},
		{
			"mesh":2,
			"name":"Floor"
		},
		{
			"mesh":3,
			"name":"Ceil"
		},
		{
			"mesh":4,
			"name":"BackWall"
		},
		{
			"mesh":5,
			"name":"Emitter"
		},
		{
			"mesh":6,
			"name":"Cube"
		},
		{
			"mesh":7,
			"name":"Sphere"
		}
	],
	"animations":[
		{
			"channels":[
				{
					"sampler":0,
					"target":{
						"node":6,
						"path":"translation"
					}
				}
			],
			"name":"CubeAction",
			"samplers":[
				{
					"input":28,
					"interpolation":"LINEAR",
					"output":29
				}
			]
		}
	],
	"materials":[
		{
			"doubleSided":true,
			"extensions":{
				"KHR_materials_specular":{
					"specularColorFactor":[
						0,
						0,
						0
					]
				},
				"KHR_materials_ior":{
					"ior":1.4500000476837158
				}
			},
			"name":"RedWall",
			"pbrMetallicRoughness":{
				"baseColorFactor":[
					0.800000011920929,
					0.10000000149011612,
					0.10000000149011612,
					1
				],
				"metallicFactor":0
			}
		},
		{
			"doubleSided":true,
			"extensions":{
				"KHR_materials_specular":{
					"specularColorFactor":[
						0,
						0,
						0
					]
				},
				"KHR_materials_ior":{
					"ior":1.4500000476837158
				}
			},
			"name":"GreenWall",
			"pbrMetallicRoughness":{
				"baseColorFactor":[
					0.10000000149011612,
					0.800000011920929,
					0.10000000149011612,
					1
				],
				"metallicFactor":0
			}
		},
		{
			"doubleSided":true,
			"extensions":{
				"KHR_materials_specular":{
					"specularColorFactor":[
						0,
						0,
						0
					]
				},
				"KHR_materials_ior":{
					"ior":1.4500000476837158
				}
			},
			"name":"Floor",
			"pbrMetallicRoughness":{
				"baseColorFactor":[
					0.800000011920929,
					0.800000011920929,
					0.800000011920929,
					1
				],
				"metallicFactor":0
			}
		},
		{
			"doubleSided":true,
			"extensions":{
				"KHR_materials_specular":{
					"specularColorFactor":[
						0,
						0,
						0
					]
				},
				"KHR_materials_ior":{
					"ior":1.4500000476837158
				}
			},
			"name":"Ceil",
			"pbrMetallicRoughness":{
				"baseColorFactor":[
					0.800000011920929,
					0.800000011920929,
					0.800000011920929,
					1
				],
				"metallicFactor":0
			}
		},
		{
			"doubleSided":true,
			"name":"Material.005",
			"pbrMetallicRoughness":{
				"baseColorFactor":[
					0.800000011920929,
					0.800000011920929,
					0.800000011920929,
					1
				],
				"metallicFactor":0
			}
		},
		{
			"doubleSided":true,
			"emissiveFactor":[
				1,
				1,
				1
			],
			"extensions":{
				"KHR_materials_emissive_strength":{
					"emissiveStrength":10
				},
				"KHR_materials_specular":{
					"specularColorFactor":[
						0,
						0,
						0
					]
				},
				"KHR_materials_ior":{
					"ior":1.4500000476837158
				}
			},
			"name":"Emitter",
			"pbrMetallicRoughness":{
				"baseColorFactor":[
					0.800000011920929,
					0.800000011920929,
					0.800000011920929,
					1
				],
				"metallicFactor":0
			}
		},
		{
			"doubleSided":true,
			"extensions":{
				"KHR_materials_specular":{
					"specularColorFactor":[
						1,
						1,
						1
					]
				},
				"KHR_materials_ior":{
					"ior":1
				}
			},
			"name":"mirror",
			"pbrMetallicRoughness":{
				"baseColorFactor":[
					0.3285714387893677,
					0.3285714387893677,
					0.3285714387893677,
					1
				],
				"roughnessFactor":0
			}
		},
		{
			"doubleSided":true,
			"extensions":{
				"KHR_materials_transmission":{
					"transmissionFactor":1
				},
				"KHR_materials_specular":{
					"specularColorFactor":[
						1,
						1,
						1
					]
				},
				"KHR_materials_ior":{
					"ior":1.7000000476837158
				}
			},
			"name":"glass",
			"pbrMetallicRoughness":{
				"baseColorFactor":[
					0.800000011920929,
					0.800000011920929,
					0.800000011920929,
					1
				],
				"metallicFactor":0,
				"roughnessFactor":0
			}
		}
	],
	"meshes":[
		{
			"name":"RightWall",
			"primitives":[
				{
					"attributes":{
						"POSITION":0,
						"NORMAL":1,
						"TEXCOORD_0":2
					},
					"indices":3,
					"material":0
				}
			]
		},
		{
			"name":"LeftWall",
			"primitives":[
				{
					"attributes":{
						"POSITION":4,
						"NORMAL":5,
						"TEXCOORD_0":6
					},
					"indices":3,
					"material":1
				}
			]
		},
		{
			"name":"Floor",
			"primitives":[
				{
					"attributes":{
						"POSITION":7,
						"NORMAL":8,
						"TEXCOORD_0":9
					},
					"indices":10,
					"material":2
				}
			]
		},
		{
			"name":"Ceil",
			"primitives":[
				{
					"attributes":{
						"POSITION":11,
						"NORMAL":12,
						"TEXCOORD_0":13
					},
					"indices":10,
					"material":3
				}
			]
		},
		{
			"name":"BackWall",
			"primitives":[
				{
					"attributes":{
						"POSITION":14,
						"NORMAL":15,
						"TEXCOORD_0":16
					},
					"indices":10,
					"material":4
				}
			]
		},
		{
			"name":"Emitter",
			"primitives":[
				{
					"attributes":{
						"POSITION":17,
						"NORMAL":18,
						"TEXCOORD_0":19
					},
					"indices":10,
					"material":5
				}
			]
		},
		{
			"name":"Cube.001",
			"primitives":[
				{
					"attributes":{
						"POSITION":20,
						"NORMAL":21,
						"TEXCOORD_0":22
					},
					"indices":23,
					"material":6
				}
			]
		},
		{
			"name":"Sphere",
			"primitives":[
				{
					"attributes":{
						"POSITION":24,
						"NORMAL":25,
						"TEXCOORD_0":26
					},
					"indices":27,
					"material":7
				}
			]
		}
	],
	"accessors":[
		{
			"bufferView":0,
			"componentType":5126,
			"count":4,
			"max":[
				2,
				2,
				2
			],
			"min":[
				1.9999998807907104,
				-2,
				-2
			],
			"type":"VEC3"
		},
		{
			"bufferView":1,
			"componentType":5126,
			"count":4,
			"type":"VEC3"
		},
		{
			"bufferView":2,
			"componentType":5126,
			"count":4,
			"type":"VEC2"
		},
		{
			"bufferView":3,
			"componentType":5123,
			"count":6,
			"type":"SCALAR"
		},
		{
			"bufferView":4,
			"componentType":5126,
			"count":4,
			"max":[
				-1.9999998807907104,
				2,
				2
			],
			"min":[
				-2,
				-2,
				-2
			],
			"type":"VEC3"
		},
		{
			"bufferView":5,
			"componentType":5126,
			"count":4,
			"type":"VEC3"
		},
		{
			"bufferView":6,
			"componentType":5126,
			"count":4,
			"type":"VEC2"
		},
		{
			"bufferView":7,
			"componentType":5126,
			"count":4,
			"max":[
				2,
				-2,
				2
			],
			"min":[
				-2,
				-2,
				-2
			],
			"type":"VEC3"
		},
		{
			"bufferView":8,
			"componentType":5126,
			"count":4,
			"type":"VEC3"
		},
		{
			"bufferView":9,
			"componentType":5126,
			"count":4,
			"type":"VEC2"
		},
		{
			"bufferView":10,
			"componentType":5123,
			"count":6,
			"type":"SCALAR"
		},
		{
			"bufferView":11,
			"componentType":5126,
			"count":4,
			"max":[
				2,
				2.000000238418579,
				2
			],
			"min":[
				-2,
				1.9999998807907104,
				-2
			],
			"type":"VEC3"
		},
		{
			"bufferView":12,
			"componentType":5126,
			"count":4,
			"type":"VEC3"
		},
		{
			"bufferView":13,
			"componentType":5126,
			"count":4,
			"type":"VEC2"
		},
		{
			"bufferView":14,
			"componentType":5126,
			"count":4,
			"max":[
				2,
				2,
				-2
			],
			"min":[
				-2,
				-2,
				-2
			],
			"type":"VEC3"
		},
		{
			"bufferView":15,
			"componentType":5126,
			"count":4,
			"type":"VEC3"
		},
		{
			"bufferView":16,
			"componentType":5126,
			"count":4,
			"type":"VEC2"
		},
		{
			"bufferView":17,
			"componentType":5126,
			"count":4,
			"max":[
				1,
				1.9500000476837158,
				1
			],
			"min":[
				-1,
				1.9500000476837158,
				-1
			],
			"type":"VEC3"
		},
		{
			"bufferView":18,
			"componentType":5126,
			"count":4,
			"type":"VEC3"
		},
		{
			"bufferView":19,
			"componentType":5126,
			"count":4,
			"type":"VEC2"
		},
		{
			"bufferView":20,
			"componentType":5126,
			"count":24,
			"max":[
				-1,
				0,
				-0.7999999523162842
			],
			"min":[
				-2,
				-2,
				-1.7999999523162842
			],
			"type":"VEC3"
		},
		{
			"bufferView":21,
			"componentType":5126,
			"count":24,
			"type":"VEC3"
		},
		{
			"bufferView":22,
			"componentType":5126,
			"count":24,
			"type":"VEC2"
		},
		{
			"bufferView":23,
			"componentType":5123,
			"count":36,
			"type":"SCALAR"
		},
		{
			"bufferView":24,
			"componentType":5126,
			"count":559,
			"max":[
				0.9999997019767761,
				0,
				1.5999994277954102
			],
			"min":[
				-0.9999990463256836,
				-2,
				-0.3999999761581421
			],
			"type":"VEC3"
		},
		{
			"bufferView":25,
			"componentType":5126,
			"count":559,
			"type":"VEC3"
		},
		{
			"bufferView":26,
			"componentType":5126,
			"count":559,
			"type":"VEC2"
		},
		{
			"bufferView":27,
			"componentType":5123,
			"count":2880,
			"type":"SCALAR"
		},
		{
			"bufferView":28,
			"componentType":5126,
			"count":21,
			"max":[
				0.1
			],
			"min":[
				0
			],
			"type":"SCALAR"
		},
		{
			"bufferView":29,
			"componentType":5126,
			"count":21,
			"type":"VEC3"
		}
	],
	"bufferViews":[
		{
			"buffer":0,
			"byteLength":48,
			"byteOffset":0,
			"target":34962
		},
		{
			"buffer":0,
			"byteLength":48,
			"byteOffset":48,
			"target":34962
		},
		{
			"buffer":0,
			"byteLength":32,
			"byteOffset":96,
			"target":34962
		},
		{
			"buffer":0,
			"byteLength":12,
			"byteOffset":128,
			"target":34963
		},
		{
			"buffer":0,
			"byteLength":48,
			"byteOffset":140,
			"target":34962
		},
		{
			"buffer":0,
			"byteLength":48,
			"byteOffset":188,
			"target":34962
		},
		{
			"buffer":0,
			"byteLength":32,
			"byteOffset":236,
			"target":34962
		},
		{
			"buffer":0,
			"byteLength":48,
			"byteOffset":268,
			"target":34962
		},
		{
			"buffer":0,
			"byteLength":48,
			"byteOffset":316,
			"target":34962
		},
		{
			"buffer":0,
			"byteLength":32,
			"byteOffset":364,
			"target":34962
		},
		{
			"buffer":0,
			"byteLength":12,
			"byteOffset":396,
			"target":34963
		},
		{
			"buffer":0,
			"byteLength":48,
			"byteOffset":408,
			"target":34962
		},
		{
			"buffer":0,
			"byteLength":48,
			"byteOffset":456,
			"target":34962
		},
		{
			"buffer":0,
			"byteLength":32,
			"byteOffset":504,
			"target":34962
		},
		{
			"buffer":0,
			"byteLength":48,
			"byteOffset":536,
			"target":34962
		},
		{
			"buffer":0,
			"byteLength":48,
			"byteOffset":584,
			"target":34962
		},
		{
			"buffer":0,
			"byteLength":32,
			"byteOffset":632,
			"target":34962
		},
		{
			"buffer":0,
			"byteLength":48,
			"byteOffset":664,
			"target":34962
		},
		{
			"buffer":0,
			"byteLength":48,
			"byteOffset":712,
			"target":34962
		},
		{
			"buffer":0,
			"byteLength":32,
			"byteOffset":760,
			"target":34962
		},
		{
			"buffer":0,
			"byteLength":288,
			"byteOffset":792,
			"target":34962
		},
		{
			"buffer":0,
			"byteLength":288,
			"byteOffset":1080,
			"target":34962
		},
		{
			"buffer":0,
			"byteLength":192,
			"byteOffset":1368,
			"target":34962
		},
		{
			"buffer":0,
			"byteLength":72,
			"byteOffset":1560,
			"target":34963
		},
		{
			"buffer":0,
			"byteLength":6708,
			"byteOffset":1632,
			"target":34962
		},
		{
			"buffer":0,
			"byteLength":6708,
			"byteOffset":8340,
			"target":34962
		},
		{
			"buffer":0,
			"byteLength":4472,
			"byteOffset":15048,
			"target":34962
		},
		{
			"buffer":0,
			"byteLength":5760,
			"byteOffset":19520,
			"target":34963
		},
		{
			"buffer":0,
			"byteLength":84,
			"byteOffset":25280
		},
		{
			"buffer":0,
			"byteLength":252,
			"byteOffset":25364
		}
	],
	"buffers":[
		{
			"byteLength":25616,
			"uri":"data:application/octet-stream;base64,"
		}
	]
}
